# xmcd
#
# Track frame offsets: 
#        150
#        36890
#        66499
#        101409
#        127254
#        163840
#        190579
#        224125
#        256958
#        292465
#        339497
#
# Disc length: 4817 seconds
#
# Revision: 0
# Processed by: cddbd v1.5.2PL0 Copyright (c) Steve Scherf et al.
# Submitted via: ExactAudioCopy v0.99pb3
#
DISCID=ba12cf0b
DTITLE=John Mayall - The Dark SIde Of Midnight
DYEAR=1900
DGENRE=Blues
TTITLE0=Rocket In A Pocket
TTITLE1=Oh, Pretty Woman
TTITLE2=My Time After A While
TTITLE3=You Never Can Be Trusted
TTITLE4=Lookin' For Willie
TTITLE5=The Stumble
TTITLE6=Italiano STyle
TTITLE7=Checkin' On My Baby
TTITLE8=Catfish Blues
TTITLE9=Room To Move
TTITLE10=Ridin' On The Santa Fé
EXTD=
EXTT0=
EXTT1=
EXTT2=
EXTT3=
EXTT4=
EXTT5=
EXTT6=
EXTT7=
EXTT8=
EXTT9=
EXTT10=
PLAYORDER=
